<svg width="56" height="57" viewBox="0 0 56 57" fill="none" xmlns="http://www.w3.org/2000/svg">
<rect x="0.5" y="1" width="55" height="55" rx="27.5" fill="#F9FAFB"/>
<rect x="0.5" y="1" width="55" height="55" rx="27.5" stroke="#EAECF0"/>
<path d="M37 26.5H19M32 18.5V22.5M24 18.5V22.5M23.8 38.5H32.2C33.8802 38.5 34.7202 38.5 35.362 38.173C35.9265 37.8854 36.3854 37.4265 36.673 36.862C37 36.2202 37 35.3802 37 33.7V25.3C37 23.6198 37 22.7798 36.673 22.138C36.3854 21.5735 35.9265 21.1146 35.362 20.827C34.7202 20.5 33.8802 20.5 32.2 20.5H23.8C22.1198 20.5 21.2798 20.5 20.638 20.827C20.0735 21.1146 19.6146 21.5735 19.327 22.138C19 22.7798 19 23.6198 19 25.3V33.7C19 35.3802 19 36.2202 19.327 36.862C19.6146 37.4265 20.0735 37.8854 20.638 38.173C21.2798 38.5 22.1198 38.5 23.8 38.5Z" stroke="#175CD3" stroke-width="2" stroke-linecap="round" stroke-linejoin="round"/>
</svg>
