<svg width="48" height="48" viewBox="0 0 48 48" fill="none" xmlns="http://www.w3.org/2000/svg">
<g filter="url(#filter0_d_2_8993)">
<rect x="2" y="1" width="44" height="44" rx="22" fill="white"/>
<rect x="2.5" y="1.5" width="43" height="43" rx="21.5" stroke="#D1E9FF"/>
<g clip-path="url(#clip0_2_8993)">
<path d="M20.6667 24.6667C20.6667 24.6667 21.9167 26.3333 24 26.3333C26.0834 26.3333 27.3334 24.6667 27.3334 24.6667M26.5 20.5H26.5084M21.5 20.5H21.5084M32.3334 23C32.3334 27.6024 28.6024 31.3333 24 31.3333C19.3976 31.3333 15.6667 27.6024 15.6667 23C15.6667 18.3976 19.3976 14.6667 24 14.6667C28.6024 14.6667 32.3334 18.3976 32.3334 23ZM26.9167 20.5C26.9167 20.7301 26.7301 20.9167 26.5 20.9167C26.2699 20.9167 26.0834 20.7301 26.0834 20.5C26.0834 20.2699 26.2699 20.0833 26.5 20.0833C26.7301 20.0833 26.9167 20.2699 26.9167 20.5ZM21.9167 20.5C21.9167 20.7301 21.7301 20.9167 21.5 20.9167C21.2699 20.9167 21.0834 20.7301 21.0834 20.5C21.0834 20.2699 21.2699 20.0833 21.5 20.0833C21.7301 20.0833 21.9167 20.2699 21.9167 20.5Z" stroke="#175CD3" stroke-width="1.5" stroke-linecap="round" stroke-linejoin="round"/>
</g>
</g>
<defs>
<filter id="filter0_d_2_8993" x="0" y="0" width="48" height="48" filterUnits="userSpaceOnUse" color-interpolation-filters="sRGB">
<feFlood flood-opacity="0" result="BackgroundImageFix"/>
<feColorMatrix in="SourceAlpha" type="matrix" values="0 0 0 0 0 0 0 0 0 0 0 0 0 0 0 0 0 0 127 0" result="hardAlpha"/>
<feOffset dy="1"/>
<feGaussianBlur stdDeviation="1"/>
<feColorMatrix type="matrix" values="0 0 0 0 0.0627451 0 0 0 0 0.0941176 0 0 0 0 0.156863 0 0 0 0.05 0"/>
<feBlend mode="normal" in2="BackgroundImageFix" result="effect1_dropShadow_2_8993"/>
<feBlend mode="normal" in="SourceGraphic" in2="effect1_dropShadow_2_8993" result="shape"/>
</filter>
<clipPath id="clip0_2_8993">
<rect width="20" height="20" fill="white" transform="translate(14 13)"/>
</clipPath>
</defs>
</svg>
