<svg width="48" height="48" viewBox="0 0 48 48" fill="none" xmlns="http://www.w3.org/2000/svg">
<g filter="url(#filter0_d_2_8987)">
<rect x="2" y="1" width="44" height="44" rx="22" fill="white"/>
<rect x="2.5" y="1.5" width="43" height="43" rx="21.5" stroke="#D1E9FF"/>
<path d="M29.8334 21.3333V23C29.8334 26.2217 27.2217 28.8333 24 28.8333M18.1667 21.3333V23C18.1667 26.2217 20.7784 28.8333 24 28.8333M24 28.8333V31.3333M20.6667 31.3333H27.3334M24 25.5C22.6193 25.5 21.5 24.3807 21.5 23V17.1667C21.5 15.7859 22.6193 14.6667 24 14.6667C25.3807 14.6667 26.5 15.7859 26.5 17.1667V23C26.5 24.3807 25.3807 25.5 24 25.5Z" stroke="#175CD3" stroke-width="1.5" stroke-linecap="round" stroke-linejoin="round"/>
</g>
<defs>
<filter id="filter0_d_2_8987" x="0" y="0" width="48" height="48" filterUnits="userSpaceOnUse" color-interpolation-filters="sRGB">
<feFlood flood-opacity="0" result="BackgroundImageFix"/>
<feColorMatrix in="SourceAlpha" type="matrix" values="0 0 0 0 0 0 0 0 0 0 0 0 0 0 0 0 0 0 127 0" result="hardAlpha"/>
<feOffset dy="1"/>
<feGaussianBlur stdDeviation="1"/>
<feColorMatrix type="matrix" values="0 0 0 0 0.0627451 0 0 0 0 0.0941176 0 0 0 0 0.156863 0 0 0 0.05 0"/>
<feBlend mode="normal" in2="BackgroundImageFix" result="effect1_dropShadow_2_8987"/>
<feBlend mode="normal" in="SourceGraphic" in2="effect1_dropShadow_2_8987" result="shape"/>
</filter>
</defs>
</svg>
