<svg width="48" height="48" viewBox="0 0 48 48" fill="none" xmlns="http://www.w3.org/2000/svg">
<g filter="url(#filter0_d_2_8991)">
<rect x="2" y="1" width="44" height="44" rx="22" fill="white"/>
<rect x="2.5" y="1.5" width="43" height="43" rx="21.5" stroke="#D1E9FF"/>
<path d="M20.6667 30.5H27.3334M24 27.1667V30.5M19.6667 27.1667H28.3334C29.7335 27.1667 30.4336 27.1667 30.9683 26.8942C31.4387 26.6545 31.8212 26.272 32.0609 25.8016C32.3334 25.2669 32.3334 24.5668 32.3334 23.1667V19.5C32.3334 18.0999 32.3334 17.3998 32.0609 16.865C31.8212 16.3946 31.4387 16.0122 30.9683 15.7725C30.4336 15.5 29.7335 15.5 28.3334 15.5H19.6667C18.2666 15.5 17.5665 15.5 17.0317 15.7725C16.5613 16.0122 16.1789 16.3946 15.9392 16.865C15.6667 17.3998 15.6667 18.0999 15.6667 19.5V23.1667C15.6667 24.5668 15.6667 25.2669 15.9392 25.8016C16.1789 26.272 16.5613 26.6545 17.0317 26.8942C17.5665 27.1667 18.2666 27.1667 19.6667 27.1667Z" stroke="#175CD3" stroke-width="1.5" stroke-linecap="round" stroke-linejoin="round"/>
</g>
<defs>
<filter id="filter0_d_2_8991" x="0" y="0" width="48" height="48" filterUnits="userSpaceOnUse" color-interpolation-filters="sRGB">
<feFlood flood-opacity="0" result="BackgroundImageFix"/>
<feColorMatrix in="SourceAlpha" type="matrix" values="0 0 0 0 0 0 0 0 0 0 0 0 0 0 0 0 0 0 127 0" result="hardAlpha"/>
<feOffset dy="1"/>
<feGaussianBlur stdDeviation="1"/>
<feColorMatrix type="matrix" values="0 0 0 0 0.0627451 0 0 0 0 0.0941176 0 0 0 0 0.156863 0 0 0 0.05 0"/>
<feBlend mode="normal" in2="BackgroundImageFix" result="effect1_dropShadow_2_8991"/>
<feBlend mode="normal" in="SourceGraphic" in2="effect1_dropShadow_2_8991" result="shape"/>
</filter>
</defs>
</svg>
