<svg width="48" height="48" viewBox="0 0 48 48" fill="none" xmlns="http://www.w3.org/2000/svg">
<g filter="url(#filter0_d_2_8997)">
<rect x="2" y="1" width="44" height="44" rx="22" fill="white"/>
<rect x="2.5" y="1.5" width="43" height="43" rx="21.5" stroke="#D1E9FF"/>
<g clip-path="url(#clip0_2_8997)">
<path d="M24 25.5C25.3807 25.5 26.5 24.3807 26.5 23C26.5 21.6193 25.3807 20.5 24 20.5C22.6192 20.5 21.5 21.6193 21.5 23C21.5 24.3807 22.6192 25.5 24 25.5Z" stroke="#175CD3" stroke-width="1.5" stroke-linecap="round" stroke-linejoin="round"/>
<path d="M29.606 25.2727C29.5052 25.5012 29.4751 25.7547 29.5197 26.0004C29.5642 26.2462 29.6814 26.473 29.856 26.6515L29.9015 26.697C30.0423 26.8377 30.1541 27.0048 30.2304 27.1887C30.3066 27.3727 30.3458 27.5698 30.3458 27.7689C30.3458 27.968 30.3066 28.1652 30.2304 28.3491C30.1541 28.5331 30.0423 28.7002 29.9015 28.8409C29.7608 28.9818 29.5937 29.0935 29.4097 29.1698C29.2258 29.246 29.0286 29.2853 28.8295 29.2853C28.6304 29.2853 28.4332 29.246 28.2493 29.1698C28.0654 29.0935 27.8983 28.9818 27.7575 28.8409L27.7121 28.7954C27.5335 28.6208 27.3068 28.5036 27.061 28.4591C26.8153 28.4145 26.5618 28.4446 26.3333 28.5454C26.1092 28.6415 25.9181 28.8009 25.7835 29.0042C25.6489 29.2074 25.5767 29.4456 25.5757 29.6894V29.8182C25.5757 30.22 25.4161 30.6054 25.1319 30.8895C24.8478 31.1737 24.4624 31.3333 24.0606 31.3333C23.6587 31.3333 23.2733 31.1737 22.9892 30.8895C22.705 30.6054 22.5454 30.22 22.5454 29.8182V29.75C22.5395 29.4992 22.4584 29.256 22.3125 29.052C22.1666 28.848 21.9626 28.6926 21.7272 28.6061C21.4987 28.5052 21.2453 28.4751 20.9995 28.5197C20.7538 28.5642 20.527 28.6814 20.3484 28.8561L20.303 28.9015C20.1623 29.0424 19.9952 29.1541 19.8112 29.2304C19.6273 29.3066 19.4301 29.3459 19.231 29.3459C19.0319 29.3459 18.8347 29.3066 18.6508 29.2304C18.4669 29.1541 18.2998 29.0424 18.1591 28.9015C18.0182 28.7608 17.9064 28.5937 17.8302 28.4097C17.7539 28.2258 17.7147 28.0287 17.7147 27.8295C17.7147 27.6304 17.7539 27.4333 17.8302 27.2493C17.9064 27.0654 18.0182 26.8983 18.1591 26.7576L18.2045 26.7121C18.3792 26.5336 18.4963 26.3068 18.5409 26.061C18.5854 25.8153 18.5553 25.5618 18.4545 25.3333C18.3585 25.1093 18.199 24.9182 17.9958 24.7836C17.7925 24.649 17.5543 24.5767 17.3106 24.5757H17.1818C16.7799 24.5757 16.3945 24.4161 16.1104 24.132C15.8263 23.8478 15.6666 23.4624 15.6666 23.0606C15.6666 22.6588 15.8263 22.2734 16.1104 21.9892C16.3945 21.7051 16.7799 21.5454 17.1818 21.5454H17.25C17.5007 21.5396 17.7439 21.4584 17.9479 21.3125C18.1519 21.1666 18.3073 20.9627 18.3939 20.7273C18.4947 20.4988 18.5248 20.2453 18.4803 19.9995C18.4357 19.7538 18.3185 19.527 18.1439 19.3485L18.0984 19.303C17.9576 19.1623 17.8458 18.9952 17.7696 18.8113C17.6933 18.6273 17.6541 18.4302 17.6541 18.2311C17.6541 18.0319 17.6933 17.8348 17.7696 17.6508C17.8458 17.4669 17.9576 17.2998 18.0984 17.1591C18.2392 17.0182 18.4063 16.9065 18.5902 16.8302C18.7741 16.754 18.9713 16.7147 19.1704 16.7147C19.3695 16.7147 19.5667 16.754 19.7506 16.8302C19.9346 16.9065 20.1017 17.0182 20.2424 17.1591L20.2878 17.2045C20.4664 17.3792 20.6932 17.4963 20.9389 17.5409C21.1847 17.5855 21.4381 17.5554 21.6666 17.4545H21.7272C21.9513 17.3585 22.1424 17.199 22.277 16.9958C22.4116 16.7925 22.4838 16.5544 22.4848 16.3106V16.1818C22.4848 15.78 22.6444 15.3946 22.9286 15.1104C23.2127 14.8263 23.5981 14.6667 24 14.6667C24.4018 14.6667 24.7872 14.8263 25.0713 15.1104C25.3555 15.3946 25.5151 15.78 25.5151 16.1818V16.25C25.5161 16.4938 25.5883 16.7319 25.7229 16.9352C25.8575 17.1384 26.0486 17.2979 26.2727 17.3939C26.5012 17.4948 26.7547 17.5249 27.0004 17.4803C27.2462 17.4357 27.4729 17.3186 27.6515 17.1439L27.6969 17.0985C27.8376 16.9576 28.0048 16.8458 28.1887 16.7696C28.3726 16.6933 28.5698 16.6541 28.7689 16.6541C28.968 16.6541 29.1652 16.6933 29.3491 16.7696C29.533 16.8458 29.7002 16.9576 29.8409 17.0985C29.9817 17.2392 30.0935 17.4063 30.1697 17.5902C30.246 17.7742 30.2852 17.9713 30.2852 18.1704C30.2852 18.3696 30.246 18.5667 30.1697 18.7507C30.0935 18.9346 29.9817 19.1017 29.8409 19.2424L29.7954 19.2879C29.6208 19.4664 29.5036 19.6932 29.459 19.9389C29.4145 20.1847 29.4446 20.4382 29.5454 20.6667V20.7273C29.6414 20.9513 29.8009 21.1424 30.0042 21.277C30.2074 21.4116 30.4456 21.4839 30.6894 21.4848H30.8181C31.22 21.4848 31.6054 21.6445 31.8895 21.9286C32.1737 22.2128 32.3333 22.5981 32.3333 23C32.3333 23.4018 32.1737 23.7872 31.8895 24.0714C31.6054 24.3555 31.22 24.5151 30.8181 24.5151H30.75C30.5062 24.5161 30.268 24.5883 30.0648 24.723C29.8615 24.8576 29.7021 25.0487 29.606 25.2727Z" stroke="#175CD3" stroke-width="1.5" stroke-linecap="round" stroke-linejoin="round"/>
</g>
</g>
<defs>
<filter id="filter0_d_2_8997" x="0" y="0" width="48" height="48" filterUnits="userSpaceOnUse" color-interpolation-filters="sRGB">
<feFlood flood-opacity="0" result="BackgroundImageFix"/>
<feColorMatrix in="SourceAlpha" type="matrix" values="0 0 0 0 0 0 0 0 0 0 0 0 0 0 0 0 0 0 127 0" result="hardAlpha"/>
<feOffset dy="1"/>
<feGaussianBlur stdDeviation="1"/>
<feColorMatrix type="matrix" values="0 0 0 0 0.0627451 0 0 0 0 0.0941176 0 0 0 0 0.156863 0 0 0 0.05 0"/>
<feBlend mode="normal" in2="BackgroundImageFix" result="effect1_dropShadow_2_8997"/>
<feBlend mode="normal" in="SourceGraphic" in2="effect1_dropShadow_2_8997" result="shape"/>
</filter>
<clipPath id="clip0_2_8997">
<rect width="20" height="20" fill="white" transform="translate(14 13)"/>
</clipPath>
</defs>
</svg>
